<?xml version="1.0" encoding="UTF-8" standalone="no"?>
<!-- Created with Inkscape (http://www.inkscape.org/) -->

<svg
   width="192.90517mm"
   height="41.695099mm"
   viewBox="0 0 192.90517 41.695099"
   version="1.1"
   id="svg1"
   xml:space="preserve"
   xmlns="http://www.w3.org/2000/svg"
   xmlns:svg="http://www.w3.org/2000/svg"><defs
     id="defs1" /><g
     id="layer1"
     transform="translate(-8.547414,-127.65245)"><path
       style="fill:#fd2a70;stroke:none;stroke-width:1.611;stroke-dasharray:none"
       d="m 41.756371,142.80107 h 0.426113 l 1.278343,1.70447 v 0.42609 c -1.810908,2.18597 -2.355946,4.49987 -1.704456,7.24397 h 0.852226 l 2.982799,-6.39172 h 1.704456 c -1.281885,3.7954 -4.916007,18.70338 4.260484,12.73771 1.102314,-0.7166 2.036741,-1.60762 2.983455,-2.51098 1.737846,5.06571 6.354424,3.13686 9.374512,0.42612 -0.979291,3.58046 -3.233387,9.53563 -7.670055,9.3745 l 1.278342,-1.70445 v -0.42611 c -2.661898,-2.78839 -7.287941,-0.61303 -5.647655,3.36287 1.886381,4.57242 9.50124,1.2571 12.022598,-0.70427 8.081299,-6.28648 6.326548,-19.00745 14.504647,-25.24265 v -0.4261 c -2.916028,0 -5.68309,0.53284 -8.522282,0.66774 -3.82366,0.18172 -6.260273,-1.46564 -9.798977,1.26357 -4.099048,3.16134 -5.094832,8.66298 -9.376155,11.70433 0.749276,-5.07359 3.424602,-10.71147 7.670052,-13.63564 v -0.42614 c -2.003936,0.086 -4.459315,0.0985 -6.391711,0.61058 -1.058113,0.28036 -2.215987,1.46699 -3.346114,1.25795 -2.865674,-0.53007 -1.931373,-3.75122 -6.028396,-2.29464 -0.0013,-11.55727 -10.495497,-14.48228 -20.02736,-10.4549 -8.028174,3.39201 -13.2768648,11.75724 -13.9877882,20.25554 -0.7301932,8.72866 7.3587902,12.13882 14.8400152,10.8169 8.540301,-1.50904 16.987855,-8.72784 18.322907,-17.63474 M 30.677404,131.42422 c 6.641633,-0.92502 7.196952,5.65623 6.008341,10.52463 -1.708971,6.99972 -7.384816,14.31252 -14.956737,15.20596 -6.241652,0.73646 -6.927695,-6.00554 -5.864988,-10.51872 1.690247,-7.17823 7.152983,-14.14498 14.813384,-15.21187 m 92.042276,1.48516 c -2.27528,0.73864 -4.47899,6.44118 -0.84566,5.74299 3.85622,-0.741 5.45918,-7.24074 0.84566,-5.74299 m -34.516876,9.46558 h -0.426115 c -7.181044,-7.77069 -16.749007,7.23075 -15.172095,14.06144 1.475289,6.39046 8.65036,1.82238 10.484843,-1.70413 h 0.426113 c 0.0469,5.18387 3.218079,5.70667 7.243939,3.40891 l -0.426115,1.27834 c 1.525067,0 4.386377,0.54729 5.655545,-0.43794 1.233329,-0.95743 1.520481,-3.69198 2.037195,-5.10155 1.435094,-3.91485 2.894656,-7.77584 6.795126,-9.80061 -0.95797,4.13894 -3.28314,7.98008 -2.95945,12.35698 0.27149,3.67137 3.74099,4.01312 6.36771,2.21508 1.10045,-0.75329 2.03483,-1.71244 2.98345,-2.64087 0.48953,4.38285 4.30777,4.25631 7.22717,1.90502 4.61242,-3.71487 5.97979,-12.99999 13.22631,-11.27954 -2.51376,2.31539 -11.45245,7.77187 -11.17364,11.48011 0.24556,3.26642 4.18575,-0.0161 5.63416,0.14436 1.63456,0.18046 3.05841,1.44826 4.68723,1.77943 3.7571,0.76387 6.23749,-2.50085 8.52231,-4.88158 1.21001,5.99301 8.42718,5.32211 12.3573,2.55668 v 1.70445 h 5.9656 c 1.3781,-5.95689 3.31848,-11.78351 8.52228,-15.34011 l -5.11338,15.34011 H 167.46 c 0.84963,-5.75286 3.53839,-12.17227 8.52231,-15.34011 -1.22415,3.75575 -4.07549,8.72006 -3.17548,12.78178 1.28357,5.79266 8.02321,1.5807 9.56718,-1.7028 h 0.42611 c 3.10483,10.42329 19.13755,1.28454 18.64118,-6.7925 -0.0862,-1.40154 -1.24045,-1.68199 -2.17924,-0.73388 -2.20721,2.22913 -3.11,5.18562 -5.81072,7.12623 -3.56152,2.55915 -5.50885,0.34814 -5.11174,-3.43487 3.27491,-10e-4 7.34101,-0.16197 9.52246,-3.02753 4.25662,-5.59142 -3.21991,-8.87726 -7.81799,-6.81355 -5.77831,2.59339 -6.58876,9.33141 -11.5051,12.82386 1.32056,-4.65342 7.17405,-16.35334 -2.9828,-13.11418 -1.2041,0.38401 -2.29453,1.02583 -3.4089,1.60911 -1.88361,-3.73474 -6.4144,-1.63402 -9.37452,-0.42612 -1.22473,-2.2211 -3.71283,-1.70444 -5.96559,-1.70444 0.68278,4.8067 -2.23312,9.52746 -5.54112,12.77682 -1.19894,1.17768 -3.18198,3.25177 -5.08676,2.47253 -1.55659,-0.63681 -2.30078,-3.11201 -0.74174,-4.15857 1.39616,-0.93724 3.7948,-0.56703 5.40401,-1.12378 3.86795,-1.33824 6.93605,-6.98757 2.12398,-9.40544 -3.65174,-1.83484 -8.13511,0.58456 -10.56767,3.27971 -4.79409,5.31158 -5.78517,11.30044 -14.14035,10.6466 l 13.63565,-14.06176 c -2.67139,-0.49388 -4.28534,0.67685 -6.81781,0.76805 -3.37208,0.12139 -7.17944,-2.11243 -10.06497,0.67829 -3.54232,3.42593 -3.94432,8.69888 -8.25795,11.76318 0.73598,-4.98337 3.33207,-10.91444 7.67004,-13.63563 v -0.42613 l -7.66346,1.10934 -8.95497,12.95242 c 0.37172,-4.25759 7.00046,-16.12431 -2.9828,-13.29961 -1.1742,0.33222 -2.28271,0.90649 -3.40891,1.36842 -1.837791,-3.33282 -10.935684,-2.57668 -13.209526,0 m 7.670055,-0.85224 c -0.370093,4.53105 -2.446171,10.72753 -6.817828,12.78343 0.564601,-3.82307 2.736382,-11.58283 6.817828,-12.78343 m -27.271302,2.55669 c -1.610431,3.44522 -4.213559,8.71012 -8.096168,9.80064 0.1827,-3.98865 3.245037,-10.73444 8.096168,-9.80064 m 17.896791,0 c -1.337686,3.65374 -4.259326,8.91878 -8.096168,10.22674 0.18253,-3.98508 3.180369,-11.17299 8.096168,-10.22674 m 64.769312,-0.4261 c -0.31245,2.79787 -2.06915,4.02543 -4.68723,4.68726 0.64817,-2.49091 2.24745,-3.96057 4.68723,-4.68726 m 43.88977,0 c -0.70313,2.69179 -2.38096,4.19234 -5.11336,4.68726 0.82961,-2.44008 2.562,-4.17248 5.11336,-4.68726 m -130.817013,12.35733 -0.426114,0.42609 z"
       id="path1" /></g></svg>
