<svg width="89" height="84" viewBox="0 0 89 84" fill="none" xmlns="http://www.w3.org/2000/svg">
<path d="M74.1667 73.5C75.1502 73.5 76.0934 73.1313 76.7889 72.4749C77.4843 71.8185 77.875 70.9283 77.875 70V31.5H11.125V66.5L18.5417 73.5H74.1667Z" fill="#0C385C" stroke="black" stroke-width="2"/>
<path d="M63.0417 73.5H74.1667C75.1502 73.5 76.0934 73.1313 76.7889 72.4749C77.4843 71.8185 77.875 70.9283 77.875 70V17.5C77.875 16.5717 77.4843 15.6815 76.7889 15.0251C76.0934 14.3687 75.1502 14 74.1667 14H14.8333C13.8498 14 12.9066 14.3687 12.2111 15.0251C11.5157 15.6815 11.125 16.5717 11.125 17.5V66.5L18.5417 73.5H25.9583" stroke="black" stroke-width="2" stroke-linecap="round" stroke-linejoin="round"/>
<path d="M18.5417 66.5V73.5L11.125 66.5H18.5417ZM14.8333 14H74.1667C75.1502 14 76.0934 14.3687 76.7889 15.0251C77.4843 15.6815 77.875 16.5717 77.875 17.5V31.5H11.125V17.5C11.125 16.5717 11.5157 15.6815 12.2111 15.0251C12.9066 14.3687 13.8498 14 14.8333 14ZM25.9583 17.5V10.5ZM44.5 17.5V10.5ZM63.0417 17.5V10.5ZM44.5 45.5V56Z" fill="#FD256E"/>
<path d="M25.9583 17.5V10.5M44.5 17.5V10.5M63.0417 17.5V10.5M44.5 45.5V56M18.5417 66.5V73.5L11.125 66.5H18.5417ZM14.8333 14H74.1667C75.1502 14 76.0934 14.3687 76.7889 15.0251C77.4843 15.6815 77.875 16.5717 77.875 17.5V31.5H11.125V17.5C11.125 16.5717 11.5157 15.6815 12.2111 15.0251C12.9066 14.3687 13.8498 14 14.8333 14Z" stroke="black" stroke-width="2" stroke-linecap="round" stroke-linejoin="round"/>
<path d="M44.3147 71.75H44.6855" stroke="black" stroke-width="2.7" stroke-linecap="round" stroke-linejoin="round"/>
</svg>
