<svg width="48" height="48" viewBox="0 0 48 48" fill="none" xmlns="http://www.w3.org/2000/svg">
<path d="M42 14V8C42 7.46957 41.7893 6.96086 41.4142 6.58579C41.0391 6.21071 40.5304 6 40 6H30C29.4696 6 28.9609 6.21071 28.5858 6.58579C28.2107 6.96086 28 7.46957 28 8V14C28 14.5304 28.2107 15.0391 28.5858 15.4142C28.9609 15.7893 29.4696 16 30 16H40C40.5304 16 41.0391 15.7893 41.4142 15.4142C41.7893 15.0391 42 14.5304 42 14ZM20 40V34C20 33.4696 19.7893 32.9609 19.4142 32.5858C19.0391 32.2107 18.5304 32 18 32H8C7.46957 32 6.96086 32.2107 6.58579 32.5858C6.21071 32.9609 6 33.4696 6 34V40C6 40.5304 6.21071 41.0391 6.58579 41.4142C6.96086 41.7893 7.46957 42 8 42H18C18.5304 42 19.0391 41.7893 19.4142 41.4142C19.7893 41.0391 20 40.5304 20 40Z" fill="#0C385C" stroke="black" stroke-width="2" stroke-linecap="round" stroke-linejoin="round"/>
<path d="M18 24H8C7.46957 24 6.96086 23.7893 6.58579 23.4142C6.21071 23.0391 6 22.5304 6 22V8C6 7.46957 6.21071 6.96086 6.58579 6.58579C6.96086 6.21071 7.46957 6 8 6H18C18.5304 6 19.0391 6.21071 19.4142 6.58579C19.7893 6.96086 20 7.46957 20 8V22C20 22.5304 19.7893 23.0391 19.4142 23.4142C19.0391 23.7893 18.5304 24 18 24ZM42 40V26C42 25.4696 41.7893 24.9609 41.4142 24.5858C41.0391 24.2107 40.5304 24 40 24H30C29.4696 24 28.9609 24.2107 28.5858 24.5858C28.2107 24.9609 28 25.4696 28 26V40C28 40.5304 28.2107 41.0391 28.5858 41.4142C28.9609 41.7893 29.4696 42 30 42H40C40.5304 42 41.0391 41.7893 41.4142 41.4142C41.7893 41.0391 42 40.5304 42 40Z" fill="#FD256E" stroke="black" stroke-width="2" stroke-linecap="round" stroke-linejoin="round"/>
</svg>
